<?xml version="1.0" encoding="utf-8"?>
<!-- Generator: Adobe Illustrator 21.0.0, SVG Export Plug-In . SVG Version: 6.00 Build 0)  -->
<svg version="1.1" id="Capa_1" xmlns="http://www.w3.org/2000/svg" xmlns:xlink="http://www.w3.org/1999/xlink" x="0px" y="0px"
	 viewBox="0 0 234.5 351.6" style="enable-background:new 0 0 234.5 351.6;" xml:space="preserve">
<style type="text/css">
	.st0{fill:#BD4147;}
</style>
<path class="st0" d="M129.3,0.8c0,0-0.1-0.1-0.1-0.1c-0.5,0.1-1,0.1-1.6,0c-0.9-0.1-1.7-0.3-2.5-0.4c-1.7,0-3.4-0.1-5.1-0.2
	c-0.5,0.2-1.1,0.3-1.7,0.3c-0.2,0-0.4,0-0.6,0c-1.3,0.2-2.7,0.4-4,0.4c-2.8,0.1-5.7,0.2-8.6,0.1c-0.3,0.2-0.7,0.3-1.1,0.4
	c0,0,0,0.1,0,0.1l0,0C49.9,6.3,0,35.9,0,88.1l0,145.1c0,63.7,50.2,116.7,113.9,118.5c66.2,1.9,120.7-51.4,120.7-117.2V88
	C234.5,31.1,181.6,3.5,129.3,0.8z M129.7,22.9c42.6,2.6,82.8,23,82.8,65.2v55.1c-27.9,10.7-56.4,14.8-82.8,15.4V22.9z M22.1,88
	c0-38.7,42-61.1,85.5-64.8v135c-39.7-2-71.9-11-85.5-15.5V88z M212.5,234.4L212.5,234.4c0,52.5-42.7,95.2-95.2,95.2
	c-52.5,0-95.2-42.7-95.2-95.2V166c19.7,6,56.8,15,100.7,15c28.1,0,58.9-3.8,89.7-14.4V234.4z"/>
<path class="st0" d="M31.3,136c0,0,50.4,14.1,67.6,11.1v-112C53.3,43.7,23.9,57.6,31.3,136z"/>
</svg>
